<mxfile host="app.diagrams.net" modified="2023-03-01T18:55:30.223Z" agent="5.0 (Windows NT 10.0; Win64; x64) AppleWebKit/537.36 (KHTML, like Gecko) Chrome/110.0.0.0 Safari/537.36" etag="xQ2q7YHiNbw_KEfVaDvM" version="20.8.23" type="github">
  <diagram name="PÃ¡gina-1" id="CPCwxj2csPqxN-FTqDd1">
    <mxGraphModel dx="1793" dy="945" grid="1" gridSize="10" guides="1" tooltips="1" connect="1" arrows="1" fold="1" page="1" pageScale="1" pageWidth="827" pageHeight="1169" math="0" shadow="0">
      <root>
        <mxCell id="0" />
        <mxCell id="1" parent="0" />
        <mxCell id="W_BvFdS6A4Htw8xNhMZL-1" value="Heist" style="ellipse;whiteSpace=wrap;html=1;" vertex="1" parent="1">
          <mxGeometry x="20" y="250" width="120" height="80" as="geometry" />
        </mxCell>
        <mxCell id="W_BvFdS6A4Htw8xNhMZL-2" value="Heist&lt;br&gt;" style="ellipse;whiteSpace=wrap;html=1;fillColor=#808080;" vertex="1" parent="1">
          <mxGeometry x="27.5" y="257.5" width="105" height="65" as="geometry" />
        </mxCell>
        <mxCell id="W_BvFdS6A4Htw8xNhMZL-3" value="master thief&lt;br&gt;" style="ellipse;whiteSpace=wrap;html=1;fillColor=#808080;" vertex="1" parent="1">
          <mxGeometry x="250" y="110" width="120" height="80" as="geometry" />
        </mxCell>
        <mxCell id="W_BvFdS6A4Htw8xNhMZL-4" value="thief&lt;br&gt;" style="ellipse;whiteSpace=wrap;html=1;fillColor=#808080;" vertex="1" parent="1">
          <mxGeometry x="490" y="110" width="120" height="80" as="geometry" />
        </mxCell>
        <mxCell id="W_BvFdS6A4Htw8xNhMZL-6" value="Colletion&lt;br&gt;site&lt;br&gt;" style="ellipse;whiteSpace=wrap;html=1;" vertex="1" parent="1">
          <mxGeometry x="250" y="350" width="120" height="80" as="geometry" />
        </mxCell>
        <mxCell id="W_BvFdS6A4Htw8xNhMZL-7" value="" style="ellipse;whiteSpace=wrap;html=1;" vertex="1" parent="1">
          <mxGeometry x="490" y="350" width="120" height="80" as="geometry" />
        </mxCell>
      </root>
    </mxGraphModel>
  </diagram>
</mxfile>
